<?xml version="1.0" encoding="UTF-8"?>
<svg xmlns="http://www.w3.org/2000/svg" version="1.1" viewBox="0 0 224 113" width="224" height="113">
  <defs>
    <style>
      .cls-1 {
        fill: #3c54a5;
      }
    </style>
  </defs>
  <!-- Generator: Adobe Illustrator 28.7.1, SVG Export Plug-In . SVG Version: 1.2.0 Build 142)  -->
  <g>
    <g id="Layer_2">
      <g id="Layer_1-2">
        <path class="cls-1" d="M50.5,0h-.1s0,0,0,0h0c-.8,0-1.9.4-2.4,2-.3.8-.3,1.8-.2,2.7l.5,16.6c0,.6.4,1.1.9,1.2,0,0,.2,0,.3,0,.2,0,.3,0,.4-.2.3-.2.4-.5.5-.9l2.2-16.4h0c.1-.9.2-1.9,0-2.7-.3-1.7-1.3-2.2-2.1-2.3"/>
        <path class="cls-1" d="M.1,65.6h0c0,.1,0,.1,0,.1h0c.4.7,1.1,1.5,2.8,1.3.9-.1,1.7-.5,2.5-.9l14.8-7.5c.5-.3.8-.8.7-1.3,0,0,0-.2-.1-.3,0-.1-.2-.2-.3-.3-.3-.2-.6-.2-1,0l-15.8,4.9h0c-.8.3-1.7.6-2.4,1.1-1.4,1-1.4,2.1-1.2,2.9"/>
        <path class="cls-1" d="M19.6,10.4h0c0,0,0,0,0,0-.6.5-1.2,1.5-.5,3.1.3.8.9,1.5,1.5,2.2l11,12.5c.4.4,1,.6,1.4.3,0,0,.2-.1.2-.2.1-.1.2-.3.2-.4,0-.3,0-.7-.2-1l-8.7-14.1h0c-.4-.8-1-1.6-1.7-2.1-1.3-1.1-2.4-.8-3.1-.4"/>
        <path class="cls-1" d="M1.5,34.9h0c-.2.9,0,2,1.4,2.9.7.4,1.7.7,2.5.9l16.2,3.5c.6.1,1.1,0,1.3-.6,0,0,0-.2,0-.3,0-.2,0-.3,0-.5-.1-.3-.4-.6-.7-.7l-15.4-6.1h0c-.8-.3-1.7-.6-2.6-.7-1.7,0-2.4.8-2.7,1.5"/>
        <path class="cls-1" d="M64.4,65.5h-15.7l14.5-23h1.2v23h0ZM78.9,65.5V22.3h-15.4l-30.6,43.6v12h30.4v12.1h15.6v-12.1h3.8v-12.5h-3.8Z"/>
        <path class="cls-1" d="M99.1,75.9l.2-48.3c0-3.8-1.1-5.1-4.6-5.2h-11.9c0,0,0,43.1,0,43.1h3.8v12.5h-3.8v12.1h36.8v-14.2h-20.5Z"/>
        <path class="cls-1" d="M123,90.1h14.2v-45.5c0-2.6-.3-5-4.6-5-4.3,0-9.6,0-9.6,0v50.5h0ZM123,32.8h14.2v-10.5h-14.2v10.5Z"/>
        <path class="cls-1" d="M165.8,31.4h1.1v-10.4h-1.6c-8.2,0-19.1,1.6-19.1,15.2v3.4h-5.8v10.5h5.8v40.1h14.2v-40.1h6.5v-10.5h-6.5v-2.7c0-4.1,2.8-5.5,5.4-5.5"/>
        <path class="cls-1" d="M180.1,59.8l.2-.8c.7-3.5,4.2-9.4,12.4-9.4s11.7,5.9,12.4,9.4l.2.8h-25.2ZM219.3,65.5c0-15.8-11.5-27.6-26.7-27.6s-26.5,12.2-26.5,27.2,12,26.8,26.8,26.8,10.2-1.6,14.4-4.5c4.1-2.8,7.5-7,9.9-12.1h-14.5c-2.1,2.6-4.7,4.9-9.7,4.9s-11.9-4.2-12.8-10.4v-.8c-.1,0,38.9,0,38.9,0,.1-.9.3-1.8.3-3.5"/>
        <path class="cls-1" d="M212.9,87.6c0-.8.2-1.5.5-2.1.4-.7.8-1.2,1.5-1.5.6-.4,1.3-.6,2-.6s1.4.2,2,.6c.6.4,1.1.9,1.5,1.5.4.7.5,1.4.5,2.1s-.2,1.5-.5,2.1c-.4.7-.8,1.2-1.5,1.5-.6.4-1.3.6-2,.6s-1.4-.2-2-.6-1.1-.9-1.5-1.5c-.4-.7-.5-1.4-.5-2.1h0ZM213.6,87.6c0,.6.1,1.2.4,1.7.3.5.7,1,1.2,1.3s1.1.5,1.7.5,1.2-.2,1.7-.5.9-.8,1.2-1.3c.3-.5.4-1.1.4-1.8s-.1-1.2-.4-1.8c-.3-.5-.7-1-1.2-1.3s-1.1-.5-1.7-.5-1.2.2-1.7.5-.9.7-1.2,1.3c-.3.5-.4,1.1-.4,1.8h0ZM216.2,88v1.9h-.9v-4.8h1.6c.6,0,1,.1,1.4.4.3.3.5.6.5,1.1s-.2.7-.6,1c.2.1.4.3.5.5,0,.2.1.5.1.8s0,.5,0,.7,0,.2,0,.3h0c0,0-.9,0-.9,0,0-.1,0-.5,0-1.1s0-.5-.2-.6c-.1-.1-.3-.2-.6-.2h-.9,0ZM216.2,87.2h.7c.3,0,.5,0,.7-.2.2-.1.3-.3.3-.5s0-.5-.2-.6-.4-.2-.7-.2h-.8v1.4h0Z"/>
        <g>
          <g>
            <path class="cls-1" d="M64,106.7h1.9v.4h-2.4v-4h.5v3.5h0Z"/>
            <path class="cls-1" d="M69.3,106.1h-1.7l-.4,1h-.5l1.5-4h.5l1.5,4h-.5l-.4-1h0ZM67.8,105.7h1.4l-.7-1.9-.7,1.9h0Z"/>
            <path class="cls-1" d="M75,103.7c-.3.4-.6.7-.8,1.1-.2.4-.4.8-.6,1.2,0,.2,0,.3-.1.5,0,.2,0,.3,0,.5s0,.3,0,.5c0,.2.1.3.3.4.3.2.6.4.9.5.4,0,.7.1,1,.1.4,0,.9,0,1.3,0s.9-.2,1.3-.3c.4,0,.8-.2,1.1-.3.4-.1.7-.3,1.1-.5,0,0,.1,0,.2,0,0,0,.1,0,.1.1,0,0,0,.1,0,.2,0,0,0,.1-.1.2,0,0-.2,0-.3.1,0,0-.2,0-.3.1-.8.4-1.7.7-2.7.8-.5,0-.9.2-1.4.2-.5,0-.9,0-1.4,0-.4,0-.7-.2-1-.4-.3-.2-.6-.4-.7-.8,0-.2-.1-.4-.2-.6,0-.2,0-.4,0-.6s0-.4.2-.6c0-.2.1-.4.2-.6.2-.5.5-.9.8-1.4.3-.4.7-.8,1-1.2.4-.4.8-.8,1.3-1.2.5-.4.9-.8,1.4-1.1.9-.7,1.9-1.3,2.9-1.8.4-.2.9-.4,1.3-.6.4-.2.9-.3,1.3-.5.2,0,.4-.1.7-.1.2,0,.4,0,.7,0,.2,0,.4,0,.6,0,.2,0,.4.1.5.3.2.2.2.4.2.6,0,.2,0,.5-.2.7-.1.2-.2.5-.4.7s-.3.4-.4.6c0,0-.1.1-.2.1s-.1,0-.2,0c0,0,0,0-.1-.1,0,0,0-.1,0-.2.2-.3.3-.5.5-.8,0-.2.2-.3.3-.5,0-.2.1-.4,0-.6,0-.2-.1-.3-.3-.3-.1,0-.3,0-.4,0-.4,0-.8,0-1.2.1-.4.1-.8.2-1.1.4-.5.2-1.1.5-1.7.9s-1.4.8-2.1,1.3c-.7.5-1.4,1-2.1,1.6-.7.6-1.2,1.1-1.7,1.7h0Z"/>
            <path class="cls-1" d="M90,105.2c0,0,.1,0,.2,0s0,0,.1.1c0,0,0,.1,0,.2,0,0,0,.1-.1.2-.2.1-.4.3-.6.4s-.5.2-.8.3c-.3.1-.5.2-.8.3-.3,0-.5.1-.7.2-.3,0-.7,0-1,0-.3,0-.6,0-.9-.3,0,0-.2.2-.3.3-.1,0-.2.1-.3.2-.1,0-.2.1-.3.1s-.3,0-.4,0-.2,0-.3,0-.2-.2-.2-.3c0-.1,0-.3,0-.5s0-.3.2-.5c0-.1.2-.3.3-.4.1-.1.2-.2.4-.3.2-.1.5-.2.7-.2s.5.2.6.4c0,0,0,.1,0,.2,0,.1.1.3,0,.4,0,0,0,.1,0,.2.2,0,.3.1.5.2s.4,0,.6,0c.3,0,.6,0,.9-.1s.6-.2.8-.3c.3-.1.5-.2.8-.4s.5-.3.7-.4h0ZM84.2,106.7c.1,0,.3-.1.4-.2.1,0,.3-.2.4-.3,0-.1-.1-.2-.1-.4s0-.2.1-.3c-.1,0-.3,0-.4,0-.1,0-.3.2-.4.3,0,0-.1.2-.2.3s0,.2,0,.3c0,0,0,.1.1.1s.1,0,.2,0h0Z"/>
            <path class="cls-1" d="M99.7,105.2c0,0,.1,0,.2,0,0,0,.1,0,.1,0s0,0,0,.1c0,0,0,.1-.1.1-.5.3-1,.5-1.5.7s-1,.4-1.5.5c-.5.1-.9.2-1.4.3-.4,0-.8,0-1.2,0-.2,0-.4,0-.5-.2-.2-.1-.3-.3-.3-.5,0-.1,0-.3,0-.4s0-.3.2-.4c0,0-.1,0-.2.1s0,0-.2.1c-.2.1-.4.3-.6.4-.2.1-.4.3-.6.4-.1,0-.2.2-.4.3-.1,0-.3,0-.4,0,0,0-.1-.1-.2-.2s0-.2,0-.3c0,0,0-.2,0-.3s0-.2.1-.2c0,0,0-.1.1-.2,0,0,0-.1.1-.2-.2,0-.3.1-.5.3s-.3.2-.4.3c-.2.1-.3.3-.5.4-.2.1-.3.2-.5.4,0,0-.1,0-.2,0,0,0-.1,0-.2,0s-.1,0-.2,0c0,0,0-.1,0-.2,0-.2,0-.3.2-.5.1-.2.2-.3.3-.5,0,0,0,0,0-.1,0,0,0,0,0,0s0,0,0,0,0,0,0-.1.1,0,.2,0,.1,0,.2,0c0,0,0,0,0,.2s0,.1,0,.2,0,.1-.1.1c0,0,0,0,0,0,0,0,0,0,0,0s0,.1,0,.2c.3-.2.5-.4.8-.6.3-.2.5-.4.8-.5,0,0,.1,0,.2,0,0,0,.2,0,.2,0,0,0,.1,0,.2,0,0,0,0,.1.1.2,0,.2,0,.3-.1.5-.1.2-.2.4-.3.6.1,0,.3-.2.4-.3.1-.1.3-.2.4-.3.2-.1.3-.3.5-.4s.3-.2.5-.3c.1,0,.2-.1.4-.2s.3,0,.4,0c.1.1.2.2,0,.4,0,.1-.2.3-.3.5s-.2.4,0,.5c0,.1.1.2.3.3s.3,0,.4,0c.7,0,1.4-.1,2.2-.3s1.7-.6,2.5-1.1h0Z"/>
            <path class="cls-1" d="M106,105.2c0,0,.1,0,.2,0,0,0,0,0,0,.1s0,.1,0,.2,0,0-.2,0c-.8.1-1.5.3-2.3.5-.8.2-1.5.4-2.3.6-.1.1-.3.3-.4.5s-.4.3-.5.4c-.1,0-.2,0-.3,0-.1,0-.2,0-.3-.2,0,0,0-.2,0-.3s0-.2.1-.3c.1,0,.2-.2.4-.2s.3-.1.4-.2h.3c0-.2,0-.2.1-.3s0-.1,0-.2c0,0,0,0-.1,0s-.1,0-.2.1c0,0-.2,0-.2.2,0,0-.1.1-.2.2-.2.2-.4.3-.5.5s-.3.4-.5.6c-.4.4-.7.8-1,1.3-.3.4-.7.9-1,1.3l-.7.9-.2.3c0,0-.1,0-.2.1s-.1,0-.2,0-.1,0-.1-.1c0-.1,0-.2.1-.4.1-.1.2-.2.2-.3.3-.4.6-.9.9-1.3.3-.4.6-.9.9-1.3.3-.4.6-.8.9-1.3.3-.4.5-.9.7-1.3,0,0,0-.1.1-.1,0,0,.1,0,.2,0s0,0,.1.1,0,.1,0,.2c-.1.3-.2.5-.4.7l.2-.2c.1-.1.3-.3.5-.4s.4-.2.5-.3c.2,0,.4,0,.5.2s.2.4.1.7c.8-.3,1.5-.5,2.2-.6.7-.2,1.4-.3,2.2-.5h0Z"/>
            <path class="cls-1" d="M112.6,105.2c0,0,.1,0,.2,0,0,0,.1,0,.1,0s0,.1,0,.2c0,0,0,.1-.1.1-.5.3-.9.5-1.3.7s-.7.4-1.1.5c-.3.1-.6.2-.9.3s-.5.1-.7.1c-.1,0-.3,0-.4,0s-.3,0-.4,0c-.1,0-.3-.1-.4-.2s-.2-.2-.3-.4c0-.1-.1-.3-.2-.4-.2.2-.4.4-.6.6-.2.2-.4.3-.7.4-.1,0-.3,0-.4,0s-.3,0-.4-.2c0,0,0-.2,0-.3s0-.2,0-.3,0-.2.1-.3c0,0,0-.2.1-.2,0-.1.2-.3.4-.4.2-.1.3-.2.5-.3s.4,0,.6,0,.4,0,.5.2c0,0,.2,0,.3,0,0,0,.1.1.1.2,0,.1,0,.2,0,.4,0,.1,0,.3.2.4,0,.1.2.2.3.3s.3.1.4.2c.2,0,.5,0,.8,0,.4,0,.7-.2,1.1-.4.4-.2.8-.3,1.2-.5.4-.2.7-.4,1-.5h0ZM105.5,106.7c0,0,.2,0,.3-.1.1,0,.3-.2.4-.3.1-.1.3-.2.4-.4s.3-.2.3-.3h-.1c-.1,0-.2-.1-.4,0s-.3,0-.4.2c-.1.1-.3.3-.4.4-.1.2-.2.4-.2.5,0,0,0,0,0,0h0Z"/>
            <path class="cls-1" d="M119.2,105.2c0,0,.1,0,.2,0s0,0,.1.1c0,0,0,.1,0,.2s0,.1-.1.2c-.2.1-.4.3-.6.4s-.5.3-.7.4-.5.2-.7.4-.5.2-.7.3c-.3,0-.6.2-.9.2s-.6,0-.9,0c-.2,0-.3,0-.5-.2s-.2-.2-.3-.4c0-.1,0-.3,0-.4,0-.1,0-.3.1-.4l-.6.3c-.2.1-.4.2-.5.3-.2.1-.4.2-.6.3-.1,0-.2.1-.4.2s-.3,0-.4,0c-.1,0-.2,0-.2-.2s0-.2,0-.3,0-.2.1-.3c0,0,.1-.2.1-.2,0,0,.2-.2.3-.3s.3-.3.5-.6c0,0,.1-.1.2-.1s.1,0,.2.2c0,0,0,.2,0,.2,0,0-.1.1-.2.2,0,0-.2.2-.2.3s-.1.2-.2.3l-.2.2c.3-.1.6-.3.9-.5s.6-.4.9-.5c.1,0,.3-.1.4-.2s.2-.1.4-.2c0,0,.1,0,.2,0s.1,0,.2,0c0,0,.1.1.1.2,0,0,0,.1,0,.2-.1.2-.2.4-.4.5-.2.2-.2.4-.2.6,0,0,0,.1.1.2,0,0,.1,0,.2,0,0,0,.2,0,.2,0,.3,0,.5,0,.8-.1.3,0,.5-.2.8-.3.2,0,.4-.2.6-.3.2-.1.5-.2.7-.3.2-.1.4-.2.7-.4s.4-.2.6-.4h0Z"/>
            <path class="cls-1" d="M123.7,105.2c0,0,.1,0,.2,0,0,0,.1,0,.1,0s0,0,0,.1c0,0,0,.1,0,.2-.3.2-.6.4-.8.6-.3.2-.6.4-.9.5-.2,0-.4.2-.6.2-.2,0-.4.1-.7.2-.2,0-.5,0-.7,0-.2,0-.4,0-.6-.2-.4-.2-.6-.4-.6-.7s0-.6.3-.9c0,0,0-.1.2-.1,0,0,.1,0,.2,0s0,0,.1.1,0,.1,0,.2c0,.1-.2.3-.2.4s0,.2,0,.4c0,.1.2.2.4.3s.3,0,.5,0c.6,0,1.2-.1,1.8-.4.6-.3,1.1-.6,1.5-1h0Z"/>
            <path class="cls-1" d="M130.4,105.2c0,0,.1,0,.2,0,0,0,.1,0,.1,0s0,.1,0,.2c0,0,0,.1-.1.1-.5.3-.9.5-1.3.7s-.7.4-1.1.5c-.3.1-.6.2-.9.3s-.5.1-.7.1c-.1,0-.3,0-.4,0s-.3,0-.4,0c-.1,0-.3-.1-.4-.2s-.2-.2-.3-.4c0-.1-.1-.3-.2-.4-.2.2-.4.4-.6.6-.2.2-.4.3-.7.4-.1,0-.3,0-.4,0s-.3,0-.4-.2c0,0,0-.2,0-.3s0-.2,0-.3,0-.2.1-.3c0,0,0-.2.1-.2,0-.1.2-.3.4-.4.2-.1.3-.2.5-.3s.4,0,.6,0c.2,0,.4,0,.5.2,0,0,.2,0,.3,0,0,0,.1.1.1.2,0,.1,0,.2,0,.4,0,.1,0,.3.2.4,0,.1.2.2.3.3s.3.1.4.2c.2,0,.5,0,.8,0,.4,0,.7-.2,1.1-.4.4-.2.8-.3,1.2-.5.4-.2.7-.4,1-.5h0ZM123.2,106.7c0,0,.2,0,.3-.1.1,0,.3-.2.4-.3.1-.1.3-.2.4-.4s.3-.2.3-.3h-.1c-.1,0-.2-.1-.4,0-.1,0-.3,0-.4.2-.1.1-.3.3-.4.4-.1.2-.2.4-.2.5,0,0,0,0,0,0Z"/>
            <path class="cls-1" d="M217.7,103.5h-.4v1.3h-.3v-1.3h-.4v-.2h1.1v.2h0ZM219.2,103.6l-.4,1.1h-.1l-.4-1.1v1.1h-.3v-1.6h.3l.4,1.2.4-1.2h.3v1.6h-.3v-1.1h0Z"/>
          </g>
          <g>
            <path class="cls-1" d="M114.9,104c-.1,0-.2,0-.3-.2v-.3c0,0,0,0-.1,0s0,0,0,0c0,0-.1,0-.2.1,0,0,0,0-.2,0,0,0,0,0,0,0,0,0,0,0,0,0,0,0,0,0,0,0s0,0,0,0c0-.2.4-.4.6-.4h0c.1,0,.2,0,.3.2,0,0,0,.2,0,.3,0,0,0,.1,0,.1h0c.3,0,.5-.2.8-.3,0,0,0,0,.1,0s0,0,0,0,0,0,0,0c0,0,0,0-.1.1-.3.2-.6.4-.9.5,0,0,0,0-.1,0h0Z"/>
            <path class="cls-1" d="M120.5,103.6c.4-.3.9-.7,1.3-1,0,0,.2-.1.3-.1h0c0,0,.1,0,.1.2,0,0,0,0,0,0,0,0,0,0,0,.1,0,0,0,0-.1,0-.5.3-1,.6-1.5.9,0,0-.1,0-.2,0s0,0,0,0,0,0,0,0c0,0,0-.1.1-.1h0Z"/>
          </g>
        </g>
        <g>
          <path class="cls-1" d="M133.7,107.2v-4h1.1c.3,0,.7,0,.9.2.3.2.5.4.6.7.1.3.2.6.2,1v.3c0,.4,0,.7-.2,1s-.4.5-.6.7c-.3.2-.6.2-.9.2h-1.1,0ZM134.2,103.6v3.1h.6c.4,0,.7-.1,1-.4.2-.3.3-.6.3-1.1v-.2c0-.5-.1-.8-.3-1.1s-.5-.4-.9-.4h-.6Z"/>
          <path class="cls-1" d="M139.9,105.3h-1.7v1.4h2v.4h-2.5v-4h2.5v.4h-2v1.3h1.7v.4h0Z"/>
          <path class="cls-1" d="M141.6,106.7h1.9v.4h-2.4v-4h.5v3.6h0Z"/>
          <path class="cls-1" d="M147.1,105.4c-.5-.1-.8-.3-1-.5s-.3-.4-.3-.7.1-.6.4-.8c.3-.2.6-.3,1-.3s.5,0,.7.2.4.3.5.4c.1.2.2.4.2.6h-.5c0-.2,0-.4-.2-.6-.2-.1-.4-.2-.7-.2s-.5,0-.6.2c-.1.1-.2.3-.2.5s0,.3.2.4c.1.1.4.2.7.3.3,0,.6.2.8.3.2.1.3.2.4.4s.1.3.1.5c0,.3-.1.6-.4.8-.3.2-.6.3-1,.3s-.5,0-.8-.2-.4-.3-.5-.4-.2-.4-.2-.6h.5c0,.2,0,.4.3.6.2.1.4.2.7.2s.5,0,.6-.2c.1-.1.2-.3.2-.5s0-.3-.2-.5-.4-.2-.7-.3h0Z"/>
          <path class="cls-1" d="M150.1,107.2h-.5v-4h.5v4Z"/>
          <path class="cls-1" d="M152.4,105.4c-.5-.1-.8-.3-1-.5s-.3-.4-.3-.7.1-.6.4-.8c.3-.2.6-.3,1-.3s.5,0,.7.2.4.3.5.4c.1.2.2.4.2.6h-.5c0-.2,0-.4-.2-.6-.2-.1-.4-.2-.7-.2s-.5,0-.6.2c-.1.1-.2.3-.2.5s0,.3.2.4c.1.1.4.2.7.3.3,0,.6.2.8.3.2.1.3.2.4.4s.1.3.1.5c0,.3-.1.6-.4.8-.3.2-.6.3-1,.3s-.5,0-.8-.2-.4-.3-.5-.4-.2-.4-.2-.6h.5c0,.2,0,.4.3.6.2.1.4.2.7.2s.5,0,.6-.2c.1-.1.2-.3.2-.5s0-.3-.2-.5-.4-.2-.7-.3h0Z"/>
          <path class="cls-1" d="M157.6,103.6h-1.3v3.6h-.5v-3.6h-1.3v-.4h3.1v.4h0Z"/>
          <path class="cls-1" d="M160.7,105.3h-1.7v1.4h2v.4h-2.5v-4h2.5v.4h-2v1.3h1.7v.4h0Z"/>
          <path class="cls-1" d="M162.5,103.2l1.3,3.3,1.3-3.3h.7v4h-.5v-3.2s-1.3,3.2-1.3,3.2h-.4l-1.3-3.2v1.7c0,0,0,1.6,0,1.6h-.5v-4h.7Z"/>
          <path class="cls-1" d="M169.2,106.1h-1.7l-.4,1h-.5l1.5-4h.5l1.5,4h-.5l-.4-1h0ZM167.7,105.7h1.4l-.7-1.9-.7,1.9Z"/>
          <path class="cls-1" d="M173.1,107.2h-.5v-4h.5v4Z"/>
          <path class="cls-1" d="M177.4,107.2h-.5l-2-3.1v3.1h-.5v-4h.5l2,3.1v-3.1h.5v4h0Z"/>
          <path class="cls-1" d="M179.3,103.2l1.3,3.3,1.3-3.3h.7v4h-.5v-3.2s-1.3,3.2-1.3,3.2h-.4l-1.3-3.2v1.7c0,0,0,1.6,0,1.6h-.5v-4h.7Z"/>
          <path class="cls-1" d="M186.5,103.2v2.7c0,.4-.1.7-.4.9-.2.2-.6.4-1,.4h-.1c-.4,0-.8-.1-1-.3-.3-.2-.4-.6-.4-1v-2.7h.5v2.7c0,.3,0,.5.2.7.2.2.4.2.7.2s.5,0,.7-.2.2-.4.2-.7v-2.7h.5Z"/>
          <path class="cls-1" d="M190.7,107.2h-.5l-2-3.1v3.1h-.5v-4h.5l2,3.1v-3.1h.5v4h0Z"/>
          <path class="cls-1" d="M194.9,105.3c0,.4,0,.7-.2,1-.1.3-.3.5-.6.7s-.5.2-.8.2-.6,0-.8-.2-.4-.4-.6-.7-.2-.6-.2-1v-.3c0-.4,0-.7.2-1,.1-.3.3-.5.6-.7s.5-.2.8-.2.6,0,.8.2c.2.2.4.4.6.7s.2.6.2,1v.3h0ZM194.4,105.1c0-.5,0-.8-.3-1.1s-.5-.4-.8-.4-.6.1-.8.4c-.2.3-.3.6-.3,1.1v.3c0,.5,0,.8.3,1.1s.5.4.8.4.6-.1.8-.4c.2-.2.3-.6.3-1.1v-.3h0Z"/>
          <path class="cls-1" d="M196.5,106.7h1.9v.4h-2.4v-4h.5v3.6h0Z"/>
          <path class="cls-1" d="M202.1,105.3c0,.4,0,.7-.2,1-.1.3-.3.5-.6.7s-.5.2-.8.2-.6,0-.8-.2-.4-.4-.6-.7-.2-.6-.2-1v-.3c0-.4,0-.7.2-1,.1-.3.3-.5.6-.7s.5-.2.8-.2.6,0,.8.2c.2.2.4.4.6.7s.2.6.2,1v.3h0ZM201.6,105.1c0-.5,0-.8-.3-1.1s-.5-.4-.8-.4-.6.1-.8.4c-.2.3-.3.6-.3,1.1v.3c0,.5,0,.8.3,1.1s.5.4.8.4.6-.1.8-.4c.2-.2.3-.6.3-1.1v-.3h0ZM200.7,102.1h.6l-.7.8h-.4l.5-.8Z"/>
          <path class="cls-1" d="M206.1,106.7c-.1.2-.3.3-.6.4-.2,0-.5.1-.8.1s-.6,0-.9-.2-.4-.4-.6-.7-.2-.6-.2-1v-.3c0-.6.1-1.1.4-1.4.3-.3.7-.5,1.2-.5s.8.1,1,.3c.3.2.4.5.5.9h-.5c0-.5-.4-.8-.9-.8s-.6.1-.8.4c-.2.2-.3.6-.3,1.1v.3c0,.4.1.8.3,1.1.2.3.5.4.8.4s.4,0,.5,0c.1,0,.3-.1.4-.2v-.9h-.9v-.4h1.4v1.5h0Z"/>
          <path class="cls-1" d="M207.7,107.2h-.5v-4h.5v4Z"/>
          <path class="cls-1" d="M211.9,105.9c0,.4-.2.7-.5,1-.3.2-.6.3-1,.3s-.8-.2-1.1-.5c-.3-.3-.4-.8-.4-1.4v-.4c0-.4,0-.7.2-1,.1-.3.3-.5.6-.7s.5-.2.8-.2.8.1,1,.4c.3.2.4.6.4,1h-.5c0-.3-.1-.5-.3-.7s-.4-.2-.6-.2-.6.1-.8.4c-.2.3-.3.6-.3,1.1v.4c0,.4,0,.8.3,1s.4.4.8.4.5,0,.7-.2.3-.4.3-.7h.5,0Z"/>
          <path class="cls-1" d="M215.9,105.3c0,.4,0,.7-.2,1-.1.3-.3.5-.6.7s-.5.2-.8.2-.6,0-.8-.2-.4-.4-.6-.7-.2-.6-.2-1v-.3c0-.4,0-.7.2-1,.1-.3.3-.5.6-.7s.5-.2.8-.2.6,0,.8.2c.2.2.4.4.6.7s.2.6.2,1v.3h0ZM215.4,105.1c0-.5,0-.8-.3-1.1s-.5-.4-.8-.4-.6.1-.8.4c-.2.3-.3.6-.3,1.1v.3c0,.5,0,.8.3,1.1s.5.4.8.4.6-.1.8-.4c.2-.2.3-.6.3-1.1v-.3h0Z"/>
        </g>
      </g>
    </g>
  </g>
</svg>
